<svg width="24" height="24" viewBox="0 0 24 24" fill="none" xmlns="http://www.w3.org/2000/svg">
  <!-- Simplified TazaPay logo for chat participant (24x24) -->
  <g transform="scale(0.857)">
    <path d="M20.1337 0L16.0626 5.71327H16.0764L13.3762 9.46455C12.0261 11.3436 13.3693 13.9619 15.6887 13.9619C16.6096 13.9619 17.475 13.5198 18.0081 12.7737L24.2671 4.02762L27.168 0H20.1337V0Z" fill="#00A9DE"/>
    <path d="M3.50317 0V5.71327H16.0626L20.1337 0H3.50317Z" fill="#0B84AE"/>
    <path d="M11.1955 22.2867L11.9778 21.1952L13.9303 18.4663C15.2804 16.5803 13.9303 13.962 11.604 13.962C10.6831 13.962 9.81768 14.4042 9.28456 15.1503L2.94253 23.9654L0 28H7.26286L11.2232 22.2867H11.1955V22.2867Z" fill="#B2F000"/>
    <path d="M24.8349 22.2867H11.2231L7.26276 28H24.8349V22.2867Z" fill="#87B613"/>
  </g>
</svg>